<svg width="15" height="13" viewBox="0 0 15 13" fill="none" xmlns="http://www.w3.org/2000/svg">
<path id="LinkedIn" fill-rule="evenodd" clip-rule="evenodd" d="M14.3 13H11.1395V8.42998C11.1395 7.23378 10.6451 6.41717 9.55798 6.41717C8.72645 6.41717 8.26402 6.96824 8.04878 7.49933C7.96807 7.68995 7.98068 7.9555 7.98068 8.22104V13H4.84961C4.84961 13 4.88997 4.90466 4.84961 4.16879H7.98068V5.55478C8.16565 4.94877 9.16618 4.08388 10.7628 4.08388C12.7437 4.08388 14.3 5.35417 14.3 8.08952V13ZM1.68324 3.06416H1.66306C0.654127 3.06416 0 2.38906 0 1.53333C0 0.660946 0.673465 0 1.70258 0C2.73086 0 3.36312 0.659282 3.3833 1.53083C3.3833 2.38657 2.73086 3.06416 1.68324 3.06416ZM0.360547 4.16878H3.14774V13H0.360547V4.16878Z" fill="#0599CA"/>
</svg>
