<svg width="15" height="12" viewBox="0 0 15 12" fill="none" xmlns="http://www.w3.org/2000/svg">
<path id="Twitter" fill-rule="evenodd" clip-rule="evenodd" d="M15 1.42059C14.4488 1.66154 13.8554 1.82449 13.233 1.89729C13.8686 1.52286 14.3564 0.929144 14.5862 0.221885C13.991 0.568581 13.3333 0.820802 12.6307 0.956013C12.0708 0.367497 11.2705 0 10.3848 0C8.68639 0 7.30851 1.35645 7.30851 3.02925C7.30851 3.26674 7.33492 3.49729 7.38774 3.71918C4.83008 3.59263 2.56295 2.38787 1.0442 0.552979C0.779186 1.00195 0.627751 1.52286 0.627751 2.07757C0.627751 3.12806 1.17098 4.05547 1.99683 4.59892C1.49322 4.58418 1.01778 4.44637 0.602219 4.22102V4.25829C0.602219 5.72654 1.66314 6.95125 3.07184 7.2286C2.81388 7.29967 2.54182 7.33521 2.26096 7.33521C2.06286 7.33521 1.86917 7.31701 1.68163 7.28147C2.07343 8.48451 3.20919 9.36078 4.55626 9.38418C3.50326 10.1972 2.17556 10.6817 0.734284 10.6817C0.486001 10.6817 0.240359 10.6678 0 10.6401C1.36204 11.4982 2.98028 12 4.71738 12C10.3786 12 13.4733 7.38462 13.4733 3.38115C13.4733 3.2494 13.4707 3.11766 13.4654 2.98852C14.0667 2.56121 14.5888 2.02817 15 1.42059Z" fill="#0599CA"/>
</svg>
